# xmcd
#
# Track frame offsets:
#	150
#	11931
#	21543
#	37609
#	54837
#	72604
#	88369
#	102610
#	116410
#	130038
#	141952
#	154750
#	172675
#	186808
#	204513
#	221394
#	235338
#	251778
#	268223
#	287965
#
# Disc length: 4032 seconds
#
# Revision: 3
# Processed by: cddbd v1.5.2PL0 Copyright (c) Steve Scherf et al.
# Submitted via: audiograbber 1.83.01
#
DISCID=2c0fbe14
DTITLE=The Cats - 100 [CD 2)
DYEAR=2008
DGENRE=Pop
TTITLE0=Sure He's A Cat
TTITLE1=Vive L'amour [mono]
TTITLE2=What's The World Coming To
TTITLE3=The Best Years Of My Life
TTITLE4=Those Were The Days
TTITLE5=La Diligence
TTITLE6=Save The Last Dance For Me [demo]
TTITLE7=Turn Around And Start Again [mono]
TTITLE8=Like A Spanish Song
TTITLE9=Don't Waste My Time
TTITLE10=Love Is A Golden Ring
TTITLE11=Love Like Yours
TTITLE12=How Did You Feel
TTITLE13=Stay In My Life
TTITLE14=She Was Too Young
TTITLE15=Romance
TTITLE16=Somewhere Over The Rainbow [mono]
TTITLE17=Lovers Don't Talk
TTITLE18=Sunday Mornings
TTITLE19=Canción de la Sierra
EXTD=
EXTT0=
EXTT1=
EXTT2=
EXTT3=
EXTT4=
EXTT5=
EXTT6=
EXTT7=
EXTT8=
EXTT9=
EXTT10=
EXTT11=
EXTT12=
EXTT13=
EXTT14=
EXTT15=
EXTT16=
EXTT17=
EXTT18=
EXTT19=
PLAYORDER=
